<svg width="47" height="47" viewBox="0 0 47 47" fill="none" xmlns="http://www.w3.org/2000/svg">
<rect width="47" height="47" rx="23.5" fill="#011F8A"/>
<path fill-rule="evenodd" clip-rule="evenodd" d="M17.4286 20.1486V18.7143C17.4286 15.56 20.3086 13 23.8571 13C27.4057 13 30.2857 15.56 30.2857 18.7143V20.1486C31.0857 20.2143 31.7143 20.8271 31.7143 21.5714V31.5714C31.7143 32.36 31.01 33 30.1429 33H17.5714C16.7043 33 16 32.36 16 31.5714V21.5714C16 20.8271 16.6286 20.2143 17.4286 20.1486ZM25.4287 25.8609C25.4287 25.0723 24.7244 24.4323 23.8572 24.4323C22.9901 24.4323 22.2858 25.0723 22.2858 25.8609V27.2894C22.2858 28.078 22.9901 28.718 23.8572 28.718C24.7244 28.718 25.4287 28.078 25.4287 27.2894V25.8609ZM27.4292 20.1462V18.7177C27.4292 17.1405 25.632 15.8605 23.8577 15.8605C22.0834 15.8605 20.2863 17.1405 20.2863 18.7177V20.1462H27.4292Z" fill="#005FF9"/>
</svg>
