<svg width="46" height="46" viewBox="0 0 46 46" fill="none" xmlns="http://www.w3.org/2000/svg">
<circle cx="23" cy="23" r="22.3" stroke="#005FF9" stroke-width="1.4"/>
<path fill-rule="evenodd" clip-rule="evenodd" d="M19.1588 26.1662C18.681 25.9414 18.3496 25.4563 18.3496 24.8939C18.3496 24.1181 18.979 23.4888 19.7537 23.4888C19.9868 23.4888 20.2063 23.5463 20.4008 23.6466C21.1859 24.0314 22.0683 24.2467 23.0008 24.2467C23.9355 24.2467 24.8189 24.0303 25.6061 23.6446C25.7985 23.5452 26.017 23.4888 26.248 23.4888C27.0227 23.4888 27.6521 24.1181 27.6521 24.8939C27.6521 25.4563 27.3196 25.9435 26.8408 26.1672C26.3118 26.4276 25.7514 26.6356 25.1681 26.7841L27.0865 28.9586C27.5998 29.5399 27.5444 30.4285 26.9631 30.9418C26.3818 31.4541 25.4932 31.3987 24.9799 30.8174L22.9998 28.5739L21.0197 30.8174C20.5064 31.3987 19.6177 31.4541 19.0365 30.9418C18.4552 30.4285 18.3998 29.5399 18.9131 28.9586L20.8315 26.7841C20.2482 26.6346 19.6888 26.4265 19.1588 26.1662ZM23.0008 14.708C25.374 14.708 27.3018 16.6358 27.3018 19.009C27.3018 21.3822 25.374 23.31 23.0008 23.31C20.6277 23.31 18.6998 21.3822 18.6998 19.009C18.6998 16.6358 20.6277 14.708 23.0008 14.708ZM23.0008 17.3206C23.9323 17.3206 24.6892 18.0775 24.6892 19.009C24.6892 19.9405 23.9323 20.6974 23.0008 20.6974C22.0693 20.6974 21.3124 19.9405 21.3124 19.009C21.3124 18.0775 22.0693 17.3206 23.0008 17.3206Z" fill="white"/>
</svg>
