<svg width="47" height="47" viewBox="0 0 47 47" fill="none" xmlns="http://www.w3.org/2000/svg">
<rect width="47" height="47" rx="23.5" fill="#C6FFE4"/>
<path fill-rule="evenodd" clip-rule="evenodd" d="M14 21.5457V18.7143C14 15.56 16.56 13 19.7143 13C22.8686 13 25.4286 15.56 25.4286 18.7143V20.1429H32.5714C33.36 20.1429 34 20.7829 34 21.5714V31.5714C34 32.36 33.36 33 32.5714 33H21.1429C20.3543 33 19.7143 32.36 19.7143 31.5714V21.5714C19.7143 20.7829 20.3543 20.1429 21.1429 20.1429H22.5714V18.7143C22.5714 17.1371 21.2914 15.8571 19.7143 15.8571C18.1371 15.8571 16.8571 17.1371 16.8571 18.7143V21.5457C16.8571 22.3343 16.2171 22.9743 15.4286 22.9743C14.64 22.9743 14 22.3343 14 21.5457ZM28.2857 25.8827C28.2857 25.0941 27.6457 24.4541 26.8571 24.4541C26.0686 24.4541 25.4286 25.0941 25.4286 25.8827V27.3113C25.4286 28.0999 26.0686 28.7399 26.8571 28.7399C27.6457 28.7399 28.2857 28.0999 28.2857 27.3113V25.8827Z" fill="#1BBC80"/>
</svg>
