<svg width="214" height="32" viewBox="0 0 214 32" fill="none" xmlns="http://www.w3.org/2000/svg">
<path d="M50.5349 20.6825H43.8964C45.0857 19.5935 45.4383 17.4145 45.4173 15.0155L45.4154 14.7575H45.4173V11.8295H50.5349V20.6825ZM55.4482 20.6825H53.504V8.95947H42.4472V14.7575H42.4492C42.4492 14.7595 42.4492 14.7615 42.4492 14.7635L42.4532 15.5625C42.4612 16.9015 42.4492 20.6605 39.6504 20.6765C39.6136 20.6765 39.0986 20.6825 39.0986 20.6825V26.8215H42.0678V23.5525H52.4781V26.8215H55.4482V23.5545V20.6825Z" fill="white"/>
<path fill-rule="evenodd" clip-rule="evenodd" d="M64.0935 8.58252C68.3107 8.58252 71.734 12.0205 71.734 16.2535C71.734 20.4875 68.3107 23.9245 64.0935 23.9245C59.8764 23.9245 56.4531 20.4875 56.4531 16.2535C56.4531 12.0205 59.8764 8.58252 64.0935 8.58252ZM64.0935 11.5625C66.6722 11.5625 68.7659 13.6645 68.7659 16.2535C68.7659 18.8425 66.6722 20.9445 64.0935 20.9445C61.5149 20.9445 59.4212 18.8425 59.4212 16.2535C59.4212 13.6645 61.5149 11.5625 64.0935 11.5625Z" fill="white"/>
<path fill-rule="evenodd" clip-rule="evenodd" d="M117.526 8.58252C121.742 8.58252 125.167 12.0205 125.167 16.2535C125.167 20.4875 121.742 23.9245 117.526 23.9245C113.309 23.9245 109.886 20.4875 109.886 16.2535C109.886 12.0205 113.309 8.58252 117.526 8.58252ZM117.526 11.5625C120.105 11.5625 122.198 13.6645 122.198 16.2535C122.198 18.8425 120.105 20.9445 117.526 20.9445C114.947 20.9445 112.854 18.8425 112.854 16.2535C112.854 13.6645 114.947 11.5625 117.526 11.5625Z" fill="white"/>
<path d="M81.9745 20.9815C80.116 20.9815 78.5084 19.8975 77.7445 18.3255C77.7445 18.3255 77.5662 17.9725 77.4746 17.6385C77.3411 17.2015 77.2694 16.7375 77.2694 16.2565C77.2694 13.6495 79.3779 11.5325 81.9745 11.5325C84.5712 11.5325 86.6797 13.6495 86.6797 16.2565C86.6797 18.8645 84.5712 20.9815 81.9745 20.9815ZM76.9397 11.3455C76.9407 10.1035 77.6598 8.24348 78.8759 7.10948C80.3381 5.74848 81.8988 5.43148 84.0492 4.95948C85.2345 4.69948 86.6867 4.30848 87.9118 3.69548L86.7893 0.938477C85.8978 1.30348 84.85 1.53448 83.7395 1.77748C81.3321 2.30648 78.604 2.90548 76.6469 5.14548C75.0343 6.99048 74.2016 9.70648 74.0473 12.7935C73.9188 15.3455 74.2146 17.8495 75.0752 19.5515C76.3032 22.1385 78.9317 23.9275 81.9745 23.9275C86.1917 23.9275 89.615 20.4905 89.615 16.2565C89.615 12.0235 86.4586 8.58548 82.2415 8.58548C79.3739 8.58548 77.6469 10.1465 76.9397 11.3455Z" fill="white"/>
<path fill-rule="evenodd" clip-rule="evenodd" d="M92.2891 28.6935L95.2582 28.6885V21.9545C96.3219 23.1645 98.1964 23.9245 99.9604 23.9245C104.176 23.9245 107.601 20.4875 107.601 16.2535C107.601 12.0205 104.176 8.58252 99.9604 8.58252C98.1964 8.58252 96.4205 9.24952 95.2582 10.4285V8.95752H92.2891V28.6935ZM99.8628 11.6485C97.2632 11.6485 95.2173 13.5165 95.2173 16.2535C95.2173 18.9915 97.2632 20.8755 99.8628 20.8755C102.463 20.8755 104.439 18.8645 104.439 16.2535C104.439 13.6435 102.463 11.6485 99.8628 11.6485Z" fill="white"/>
<path d="M20.73 16C20.73 18.654 18.5797 20.813 15.9362 20.813C13.2928 20.813 11.1424 18.654 11.1424 16C11.1424 13.346 13.2928 11.187 15.9362 11.187C18.5797 11.187 20.73 13.346 20.73 16ZM15.9362 0C7.14939 0 0 7.178 0 16C0 24.822 7.14939 32 15.9362 32C19.1553 32 22.2599 31.038 24.9133 29.217L24.9591 29.185L22.8117 26.679L22.7759 26.703C20.733 28.022 18.3675 28.72 15.9362 28.72C8.95019 28.72 3.26693 23.014 3.26693 16C3.26693 8.986 8.95019 3.28 15.9362 3.28C22.9223 3.28 28.6055 8.986 28.6055 16C28.6055 16.909 28.5049 17.829 28.3067 18.734C27.9063 20.385 26.7549 20.891 25.8904 20.824C25.0209 20.753 24.004 20.131 23.997 18.609V17.368V16C23.997 11.537 20.3814 7.907 15.9362 7.907C11.491 7.907 7.87549 11.537 7.87549 16C7.87549 20.463 11.491 24.093 15.9362 24.093C18.0956 24.093 20.1205 23.245 21.6474 21.704C22.5348 23.091 23.982 23.961 25.6284 24.093C25.7699 24.105 25.9143 24.111 26.0577 24.111C27.2161 24.111 28.3655 23.722 29.2918 23.015C30.247 22.287 30.9601 21.234 31.3545 19.969C31.4173 19.765 31.5328 19.297 31.5338 19.294L31.5368 19.277C31.7689 18.262 31.8725 17.25 31.8725 16C31.8725 7.178 24.7231 0 15.9362 0" fill="#FF9E00"/>
<path fill-rule="evenodd" clip-rule="evenodd" d="M203.593 12.9703C203.658 16.2389 205.371 18.205 208.195 18.205H208.366V16.3344C209.392 16.44 210.164 17.2094 210.474 18.205H211.957C211.556 16.7166 210.509 15.8919 209.863 15.5801C210.509 15.1929 211.426 14.2476 211.641 12.9703H210.294C210.013 14.0112 209.172 14.9516 208.366 15.0421V12.9703H206.993V16.5959C206.157 16.3897 205.07 15.3689 205.025 12.9703H203.593ZM208.005 21.715H207.484H207.436C204.638 21.715 203.227 21.715 202.355 20.835C201.479 19.95 201.479 18.5319 201.479 15.6958V15.1628V15.115C201.479 12.3156 201.479 10.8986 202.355 10.0236C203.237 9.14355 204.654 9.14355 207.484 9.14355H208.005C210.835 9.14355 212.252 9.14355 213.129 10.0236C214 10.9086 214 12.3266 214 15.1628V15.6958C214 18.5269 214 19.95 213.129 20.835C212.252 21.715 210.835 21.715 208.005 21.715ZM156.511 11.6107V22.2163H158.18V18.0618C158.48 18.4324 158.867 18.7445 159.342 18.998C159.816 19.2418 160.358 19.3637 160.967 19.3637C161.674 19.3637 162.307 19.1979 162.869 18.8664C163.43 18.525 163.865 18.0569 164.175 17.462C164.494 16.8574 164.654 16.1747 164.654 15.4141C164.654 14.6534 164.494 13.9756 164.175 13.3807C163.865 12.7761 163.43 12.308 162.869 11.9764C162.307 11.6351 161.674 11.4644 160.967 11.4644C160.338 11.4644 159.782 11.6009 159.298 11.874C158.814 12.1373 158.418 12.4591 158.108 12.8395L157.76 11.6107H156.511ZM162.259 17.1841C161.824 17.6327 161.257 17.857 160.561 17.857C159.854 17.857 159.279 17.6327 158.834 17.1841C158.398 16.7257 158.18 16.1357 158.18 15.4141C158.18 14.6924 158.398 14.1073 158.834 13.6586C159.279 13.2003 159.854 12.9711 160.561 12.9711C161.257 12.9711 161.824 13.2003 162.259 13.6586C162.694 14.1073 162.912 14.6924 162.912 15.4141C162.912 16.1357 162.694 16.7257 162.259 17.1841ZM147.979 19.2174H149.648V13.1467H152.957V19.2174H154.626V11.6107H147.979V19.2174ZM169.707 19.3637C168.933 19.3637 168.236 19.1979 167.617 18.8664C167.007 18.525 166.528 18.0569 166.18 17.462C165.841 16.8574 165.672 16.1747 165.672 15.4141C165.672 14.6534 165.841 13.9756 166.18 13.3807C166.528 12.7761 167.007 12.308 167.617 11.9764C168.236 11.6351 168.933 11.4644 169.707 11.4644C170.481 11.4644 171.173 11.6351 171.782 11.9764C172.402 12.308 172.881 12.7761 173.219 13.3807C173.568 13.9756 173.742 14.6534 173.742 15.4141C173.742 16.1747 173.568 16.8574 173.219 17.462C172.881 18.0569 172.402 18.525 171.782 18.8664C171.173 19.1979 170.481 19.3637 169.707 19.3637ZM169.707 17.8277C170.384 17.8277 170.936 17.6083 171.361 17.1695C171.787 16.7209 172 16.1357 172 15.4141C172 14.6924 171.787 14.1121 171.361 13.6733C170.936 13.2247 170.384 13.0004 169.707 13.0004C169.029 13.0004 168.478 13.2247 168.052 13.6733C167.626 14.1121 167.413 14.6924 167.413 15.4141C167.413 16.1357 167.626 16.7209 168.052 17.1695C168.478 17.6083 169.029 17.8277 169.707 17.8277ZM182.566 15.8675C182.585 15.653 182.595 15.4726 182.595 15.3263C182.595 14.6046 182.426 13.9512 182.087 13.3661C181.758 12.7712 181.294 12.308 180.694 11.9764C180.103 11.6351 179.431 11.4644 178.676 11.4644C177.921 11.4644 177.244 11.6351 176.644 11.9764C176.054 12.308 175.59 12.7761 175.251 13.3807C174.922 13.9756 174.757 14.6534 174.757 15.4141C174.757 16.1747 174.922 16.8574 175.251 17.462C175.59 18.0569 176.054 18.525 176.644 18.8664C177.244 19.1979 177.921 19.3637 178.676 19.3637C179.489 19.3637 180.224 19.1736 180.882 18.7932C181.55 18.4129 182.019 17.8716 182.29 17.1695L180.723 16.9062C180.539 17.189 180.273 17.4133 179.924 17.5791C179.586 17.7448 179.204 17.8277 178.778 17.8277C178.149 17.8277 177.631 17.6522 177.225 17.3011C176.818 16.9403 176.576 16.4624 176.499 15.8675H182.566ZM177.355 13.3661C177.733 13.0735 178.173 12.9272 178.676 12.9272C179.189 12.9272 179.629 13.0784 179.997 13.3807C180.374 13.6733 180.636 14.0634 180.781 14.551H176.601C176.736 14.0536 176.988 13.6586 177.355 13.3661ZM190.775 19.2174H188.584L185.971 16.1894H185.565V19.2174H183.896V11.6107H185.565V14.5656H185.971L188.497 11.6107H190.485L187.307 15.2678L190.775 19.2174ZM193.607 19.2174H195.276V13.1467H197.888V11.6107H190.994V13.1467H193.607V19.2174Z" fill="white" fill-opacity="0.48"/>
<path fill-rule="evenodd" clip-rule="evenodd" d="M135.458 21.714L135.458 9.14258L136.596 9.14258L136.596 21.714H135.458Z" fill="white" fill-opacity="0.48"/>
</svg>
