<svg width="46" height="46" viewBox="0 0 46 46" fill="none" xmlns="http://www.w3.org/2000/svg">
<circle cx="23" cy="23" r="22.3" stroke="#005FF9" stroke-width="1.4"/>
<path fill-rule="evenodd" clip-rule="evenodd" d="M19.7415 30.3174C26.2724 30.3174 29.8447 24.9061 29.8447 20.2141C29.8447 20.0604 29.8447 19.9067 29.8343 19.7551C30.4041 19.3432 30.9101 18.8498 31.3366 18.2936C31.3711 18.2455 31.3701 18.1807 31.3335 18.1336C31.2979 18.0866 31.2362 18.0688 31.1808 18.0897C30.6602 18.28 30.1187 18.4107 29.5667 18.4755C30.2263 18.0814 30.7376 17.4844 31.0292 16.7798C31.0449 16.739 31.0324 16.693 31 16.6648C30.9676 16.6365 30.9205 16.6313 30.8818 16.6522C30.2525 16.991 29.575 17.2345 28.8735 17.3736C28.2013 16.6595 27.2635 16.2539 26.2839 16.2539C24.3342 16.2539 22.7294 17.8587 22.7294 19.8085C22.7294 20.0792 22.7607 20.349 22.8214 20.6124C20.0415 20.4723 17.4436 19.1885 15.6454 17.0725C15.613 17.0338 15.5628 17.014 15.5126 17.0192C15.4624 17.0244 15.4175 17.0547 15.3945 17.0997C14.6072 18.6835 15.1132 20.648 16.602 21.6422C16.1974 21.6296 15.5461 21.43 15.2084 21.3181C15.1592 21.3014 15.1059 21.3108 15.0652 21.3421C15.0233 21.3735 15.0014 21.4237 15.0045 21.4749C15.0882 22.1848 15.5189 24.3018 17.8398 24.7231C17.385 24.8475 16.9114 24.88 16.4462 24.8183C16.4012 24.812 16.3563 24.8298 16.3281 24.8643C16.2998 24.8998 16.2925 24.9469 16.3082 24.9887C16.8288 26.3206 18.1106 27.2239 19.5533 27.251C18.7222 27.9034 17.7614 28.3603 16.7442 28.5934C16.4117 28.6697 15.6224 28.7147 15.0223 28.7293C14.9334 28.7262 14.854 28.7858 14.8299 28.8715C14.8069 28.9583 14.8446 29.0492 14.923 29.0931C16.3981 29.895 18.0541 30.3174 19.7415 30.3153" fill="white"/>
</svg>
